<?xml version="1.0" standalone="no"?>
<!DOCTYPE svg PUBLIC "-//W3C//DTD SVG 20010904//EN"
 "http://www.w3.org/TR/2001/REC-SVG-20010904/DTD/svg10.dtd">
<svg version="1.0" xmlns="http://www.w3.org/2000/svg"
 width="256.000000pt" height="256.000000pt" viewBox="0 0 256.000000 256.000000"
 preserveAspectRatio="xMidYMid meet">
<metadata>
Created by potrace 1.14, written by Peter Selinger 2001-2017
</metadata>
<g transform="translate(0.000000,256.000000) scale(0.100000,-0.100000)"
fill="#000000" stroke="none">
<path d="M2554 2460 c0 -58 1 -81 3 -52 2 28 2 76 0 105 -2 28 -3 5 -3 -53z"/>
<path d="M1190 2430 c-119 -29 -203 -98 -273 -225 -26 -48 -46 -90 -43 -92 2
-3 -6 -25 -20 -50 -13 -25 -24 -52 -24 -58 0 -7 -7 -15 -15 -19 -12 -4 -15
-20 -14 -63 1 -42 -4 -69 -20 -98 -20 -37 -21 -37 -21 -13 0 27 -33 68 -55 68
-6 0 -23 -14 -39 -32 -25 -29 -29 -30 -38 -15 -8 14 -13 16 -24 6 -12 -9 -14
-5 -14 24 0 20 -4 38 -9 41 -10 7 -21 -17 -21 -46 0 -17 -3 -18 -15 -8 -9 7
-15 29 -15 54 l0 41 -105 1 -105 2 6 -23 c5 -19 2 -23 -13 -19 -33 8 -47 -10
-35 -45 12 -33 3 -40 -22 -16 -11 12 -12 23 -5 47 11 41 12 38 -6 38 -8 0 -15
5 -15 10 0 20 -18 9 -24 -15 -4 -14 -11 -25 -16 -25 -12 0 -13 12 -1 43 7 18
5 26 -10 35 -10 7 -19 19 -19 27 0 20 -19 19 -26 0 -5 -12 -10 -13 -20 -4 -11
9 -14 8 -14 -4 0 -19 -21 -27 -49 -20 -16 4 -20 11 -16 27 2 11 2 15 -1 9 -3
-7 -12 -13 -20 -13 -12 0 -14 -141 -14 -1000 l0 -1000 233 0 c173 0 236 3 246
12 11 10 13 10 7 1 -6 -10 204 -13 1034 -13 l1041 0 -1 421 -1 421 -51 -4
c-40 -4 -55 -1 -68 12 -10 10 -32 21 -49 25 -47 10 -37 20 34 34 36 7 65 18
65 24 0 6 -3 7 -7 4 -3 -4 -12 1 -19 11 -13 16 -13 16 -14 -2 0 -15 -3 -16
-15 -6 -14 12 -19 7 -16 -15 1 -5 -5 -2 -12 7 -8 10 -21 15 -34 12 -13 -4 -22
0 -26 10 -7 18 -52 22 -62 6 -7 -11 -46 -4 -55 10 -3 4 -18 11 -35 15 -16 5
-33 9 -37 10 -5 2 -18 4 -30 5 l-23 2 23 6 c13 4 23 10 23 15 -2 25 0 27 21
16 16 -9 23 -9 26 0 2 6 13 11 24 11 13 0 18 -5 15 -14 -10 -24 26 -29 45 -7
9 12 21 21 27 21 5 0 12 3 14 7 3 5 -47 6 -110 5 -91 -3 -114 -1 -107 9 5 9 2
10 -11 6 -20 -8 -44 17 -45 45 0 10 -5 17 -11 15 -17 -3 -23 22 -7 27 7 3 43
8 81 11 61 6 68 9 73 32 5 18 2 30 -10 38 -22 16 -20 25 5 25 11 0 17 5 14 10
-3 6 1 10 9 10 25 0 29 1 61 14 31 13 95 10 95 -4 0 -5 -34 -11 -75 -15 -65
-6 -73 -9 -58 -20 10 -8 20 -9 24 -4 3 5 5 -12 4 -38 0 -36 -5 -49 -17 -51
-12 -2 -15 -11 -13 -30 2 -15 4 -30 4 -33 1 -6 59 -22 91 -24 8 -1 20 3 26 7
17 13 115 7 111 -6 -2 -6 -14 -10 -25 -8 -16 2 -25 -4 -32 -22 -10 -28 -25
-34 -33 -13 -3 9 -10 7 -23 -7 -19 -18 -18 -18 3 -12 12 4 24 2 28 -4 3 -6 12
-7 18 -3 6 4 22 8 36 9 13 2 28 9 32 16 6 9 9 8 9 -6 0 -22 39 -61 69 -69 l21
-5 -1 416 c-1 230 -3 409 -6 399 -3 -11 -11 -16 -19 -13 -8 3 -12 2 -9 -4 6
-10 -29 -32 -48 -29 -6 1 -25 -3 -40 -9 -25 -10 -32 -9 -54 8 -34 27 -63 26
-71 -2 -4 -18 -6 -19 -11 -6 -5 15 -10 15 -46 2 -22 -7 -48 -11 -57 -8 -10 3
-27 0 -38 -6 -14 -7 -26 -8 -33 -2 -19 15 -79 31 -127 33 -25 1 -51 7 -57 12
-8 5 -13 6 -13 0 0 -4 -18 -7 -40 -5 -22 2 -40 8 -40 13 0 5 -18 8 -40 7 -22
-1 -43 2 -48 7 -4 4 77 5 181 1 193 -7 208 -4 167 31 -16 14 -17 20 -7 32 8
10 8 12 1 8 -7 -4 -17 6 -25 26 -7 17 -19 36 -26 40 -7 4 -16 26 -19 47 -8 46
-21 53 -26 13 -2 -16 -10 -29 -18 -29 -8 -1 -19 -2 -24 -3 -5 0 -3 -8 4 -16
15 -18 5 -34 -12 -17 -6 6 -11 32 -12 57 -1 50 -16 63 -16 13 0 -25 -3 -29
-12 -20 -19 19 -30 14 -22 -10 6 -21 4 -21 -20 5 -26 28 -26 53 0 43 16 -6 18
8 4 34 -7 13 -18 17 -35 14 -14 -2 -25 0 -25 6 0 5 -5 10 -11 10 -5 0 -7 -4
-4 -10 3 -5 2 -10 -4 -10 -13 0 -32 35 -24 44 3 3 3 6 -1 6 -4 0 -17 -10 -28
-22 l-20 -23 5 23 c3 12 1 20 -4 17 -4 -3 -11 7 -15 22 -25 101 -131 236 -224
283 -88 44 -211 61 -300 40z m20 -162 c58 -11 95 -26 86 -35 -3 -3 6 -19 19
-35 14 -16 25 -35 25 -42 0 -17 24 -66 32 -66 4 0 18 -11 32 -24 35 -31 34
-63 -1 -77 -16 -6 -35 -15 -44 -19 -9 -5 -47 -5 -84 0 -37 5 -74 6 -82 3 -35
-14 -60 -123 -28 -123 9 0 20 11 24 24 5 13 17 26 26 30 25 9 55 7 55 -4 0
-14 78 -12 122 4 26 9 40 10 47 3 16 -16 13 -58 -5 -92 -67 -123 -82 -160 -78
-189 4 -25 -2 -40 -33 -78 -21 -26 -42 -47 -46 -48 -5 0 -21 -9 -36 -19 -32
-23 -103 -43 -124 -35 -8 3 -44 39 -81 80 -59 67 -66 79 -64 114 1 21 -4 46
-11 54 -19 23 -42 135 -35 173 5 27 10 33 26 27 10 -3 26 0 35 8 13 10 17 10
20 1 6 -17 58 -16 72 1 15 18 4 45 -23 51 -11 3 -43 4 -71 2 l-50 -2 -3 44
c-2 24 2 49 7 54 6 6 11 35 11 63 0 29 5 56 10 59 6 3 10 14 10 24 0 10 7 24
15 31 22 18 138 58 155 53 8 -2 40 -9 70 -15z m551 -225 c-12 -20 -14 -14 -5
12 4 9 9 14 11 11 3 -2 0 -13 -6 -23z m-451 -103 c12 -7 8 -10 -15 -10 -16 0
-41 -3 -55 -6 -24 -5 -24 -5 -6 10 22 18 54 20 76 6z m-240 -15 c11 -14 10
-14 -14 -5 -15 5 -39 7 -53 4 -18 -5 -24 -3 -19 5 10 16 71 14 86 -4z m-675
-15 c-3 -5 -12 -10 -18 -10 -7 0 -6 4 3 10 19 12 23 12 15 0z m-210 -60 c-10
-11 -22 -17 -28 -13 -6 4 -1 14 13 25 29 23 39 15 15 -12z m155 10 c0 -5 -2
-10 -4 -10 -3 0 -8 5 -11 10 -3 6 -1 10 4 10 6 0 11 -4 11 -10z m60 -23 c0 -5
-4 -5 -10 -2 -5 3 -10 14 -10 23 0 15 2 15 10 2 5 -8 10 -19 10 -23z m307 -19
c-3 -8 -6 -5 -6 6 -1 11 2 17 5 13 3 -3 4 -12 1 -19z m-470 -34 c-3 -3 -12 -4
-19 -1 -8 3 -5 6 6 6 11 1 17 -2 13 -5z m2310 -141 c-3 -10 -5 -4 -5 12 0 17
2 24 5 18 2 -7 2 -21 0 -30z m-1772 -222 c-3 -12 -11 -21 -16 -21 -6 0 -7 5
-4 10 4 6 -7 10 -27 10 -22 0 -28 3 -20 9 8 4 24 7 38 5 13 -1 24 3 24 9 0 5
3 8 6 4 3 -3 3 -15 -1 -26z m-119 -48 c-10 -10 -19 5 -10 18 6 11 8 11 12 0 2
-7 1 -15 -2 -18z m144 10 c3 -3 -11 -4 -30 -2 -19 2 -41 -1 -48 -5 -7 -4 -16
-5 -19 -2 -4 3 0 6 8 6 12 0 11 2 -1 11 -11 7 -1 8 35 3 28 -4 52 -9 55 -11z
m-113 -38 c-7 -8 -16 -10 -21 -4 -6 5 -19 10 -30 10 -12 1 -5 5 14 8 43 9 54
4 37 -14z m551 -30 c28 -15 49 -32 46 -37 -5 -7 14 -8 57 -4 35 4 74 8 87 9
12 1 22 5 22 10 0 4 5 7 10 7 6 0 10 -7 10 -16 0 -8 5 -12 10 -9 6 3 10 -2 10
-11 0 -10 3 -14 7 -11 8 9 32 -24 33 -45 0 -9 5 -18 11 -20 9 -3 9 -10 -1 -27
-10 -19 -10 -25 1 -32 10 -6 10 -9 2 -9 -10 0 -10 -6 -1 -26 8 -16 8 -28 2
-32 -5 -4 -9 -33 -9 -64 0 -32 -4 -59 -9 -61 -6 -2 -6 -11 -1 -23 4 -10 7 -25
6 -32 -2 -10 4 -12 20 -7 l23 7 -25 -30 c-13 -17 -32 -34 -41 -37 -9 -3 -15
-12 -12 -19 3 -8 -4 -16 -15 -19 -12 -3 -19 -1 -15 4 10 18 -15 9 -28 -10 -29
-41 -76 -54 -173 -47 -96 7 -250 42 -326 74 -48 21 -89 63 -89 91 0 25 25 66
39 63 7 -1 10 2 7 7 -3 5 1 14 8 20 10 8 16 9 21 1 10 -16 25 -12 25 7 0 9 8
41 18 72 21 68 65 115 147 157 33 17 59 36 58 41 -1 5 -5 34 -8 64 -5 46 -4
52 7 38 7 -9 37 -29 66 -44z m-645 28 c-7 -2 -19 -2 -25 0 -7 3 -2 5 12 5 14
0 19 -2 13 -5z m1367 -33 c-8 -5 -17 -7 -19 -4 -3 3 1 9 9 14 8 5 17 7 19 4 3
-3 -1 -9 -9 -14z m547 -12 c-3 -7 -5 -2 -5 12 0 14 2 19 5 13 2 -7 2 -19 0
-25z m-1827 2 c0 -5 -5 -10 -11 -10 -5 0 -7 5 -4 10 3 6 8 10 11 10 2 0 4 -4
4 -10z m1460 -4 c0 -8 -15 -17 -35 -20 -19 -4 -35 -12 -35 -18 0 -6 -3 -9 -6
-5 -3 3 1 16 10 29 10 14 16 17 16 8 0 -11 4 -11 17 3 21 21 33 22 33 3z
m-1560 -26 c0 -5 -2 -10 -4 -10 -3 0 -8 5 -11 10 -3 6 -1 10 4 10 6 0 11 -4
11 -10z m1810 4 c0 -3 -5 -14 -11 -25 -8 -16 -7 -25 8 -42 10 -11 12 -17 6
-13 -7 4 -13 3 -13 -2 0 -5 -9 -12 -20 -15 -16 -4 -19 -1 -14 17 3 12 6 31 8
41 2 10 8 21 14 23 7 2 10 8 6 13 -3 5 0 9 5 9 6 0 11 -3 11 -6z m-2045 -24
c-3 -5 -16 -10 -28 -9 -21 0 -21 1 -2 9 28 12 37 12 30 0z m1945 -15 c0 -8 -4
-15 -10 -15 -5 0 -10 7 -10 15 0 8 5 15 10 15 6 0 10 -7 10 -15z m-2 -110
c-27 -14 -33 -12 -25 9 4 9 14 12 27 9 21 -6 21 -6 -2 -18z m-1837 -42 c-12
-20 -14 -14 -5 12 4 9 9 14 11 11 3 -2 0 -13 -6 -23z m-31 -69 c0 -35 5 -38
49 -34 14 1 21 -2 17 -9 -4 -6 -13 -11 -21 -11 -8 0 -20 -9 -28 -19 -13 -20
-14 -20 -60 2 -25 12 -46 27 -47 33 0 17 -26 24 -39 11 -8 -8 -11 -7 -11 5 0
9 -3 24 -6 33 -6 15 -4 15 15 3 18 -11 23 -11 32 2 9 12 10 12 5 -4 -5 -14 -2
-17 11 -12 9 4 20 2 24 -5 7 -12 42 1 40 14 -3 24 0 37 9 32 6 -3 10 -22 10
-41z m1700 22 c0 -3 -4 -8 -10 -11 -5 -3 -10 -1 -10 4 0 6 5 11 10 11 6 0 10
-2 10 -4z m-231 -60 c-10 -10 -89 -23 -89 -16 0 8 16 11 79 18 8 1 12 0 10 -2z
m-100 -19 c-2 -1 -12 -9 -21 -16 -15 -12 -18 -11 -18 3 0 10 8 16 22 16 12 0
19 -1 17 -3z m-51 -12 c-8 -8 -68 -25 -68 -19 0 6 41 23 59 23 8 1 12 -1 9 -4z
m-1263 -15 c3 -5 -1 -10 -9 -10 -9 0 -16 5 -16 10 0 6 4 10 9 10 6 0 13 -4 16
-10z m1425 0 c-8 -5 -23 -10 -33 -10 -10 0 -70 -18 -134 -40 -65 -22 -121 -40
-126 -40 -21 0 17 30 51 41 20 6 46 17 57 23 45 24 83 34 140 35 42 0 56 -2
45 -9z m-1440 -24 c0 -2 -7 -6 -15 -10 -8 -3 -15 -1 -15 4 0 6 7 10 15 10 8 0
15 -2 15 -4z m103 -12 c18 -7 24 -34 6 -34 -5 0 -7 -5 -4 -10 7 -11 -74 -52
-87 -44 -4 3 -8 0 -8 -6 0 -7 -7 -9 -16 -6 -9 4 -23 1 -30 -5 -10 -8 -14 -8
-14 0 0 6 -8 10 -17 9 -10 -1 -27 0 -38 1 -32 5 21 19 73 20 44 1 112 26 112
42 0 4 -4 11 -10 14 -15 9 -12 38 3 31 6 -3 20 -9 30 -12z m-254 -97 c-13 -5
-32 -13 -41 -18 -13 -7 -18 -5 -18 6 0 8 14 18 33 23 39 11 60 2 26 -11z m-73
-58 c1 -27 0 -29 -14 -15 -13 12 -13 18 -2 30 16 20 15 21 16 -15z m1184 -34
c0 -2 -10 -10 -22 -16 -21 -11 -22 -11 -9 4 13 16 31 23 31 12z m-992 -15 c36
0 45 -20 10 -21 -22 0 -22 -1 -3 -9 18 -8 17 -9 -7 -9 -17 -1 -27 4 -25 12 1
7 -8 11 -25 10 -16 -1 -28 2 -28 7 0 5 -8 11 -17 14 -10 3 0 3 22 1 22 -3 55
-5 73 -5z m-155 -167 c-7 -2 -21 -2 -30 0 -10 3 -4 5 12 5 17 0 24 -2 18 -5z
m94 -3 c25 0 31 -4 27 -15 -5 -12 -10 -13 -20 -4 -22 18 -16 -6 6 -26 15 -13
17 -22 9 -36 -12 -22 -31 -26 -23 -4 9 22 -3 18 -34 -10 -33 -31 -62 -33 -62
-5 0 11 -7 20 -16 20 -8 0 -13 -4 -10 -9 6 -9 -16 -21 -37 -21 -7 0 -6 4 3 10
10 6 11 10 3 10 -7 0 -13 9 -13 21 0 12 -4 17 -11 14 -6 -4 -8 -13 -5 -21 3
-8 -1 -14 -9 -14 -9 0 -15 9 -15 23 0 15 -3 18 -8 9 -6 -8 -9 -2 -9 18 0 21 4
27 11 20 14 -14 56 -13 56 1 0 7 9 9 23 5 48 -15 99 -17 94 -4 -2 7 -12 12
-21 12 -9 -1 -16 3 -16 8 0 6 10 8 23 4 12 -3 36 -6 54 -6z m-250 -62 c-3 -8
-6 -5 -6 6 -1 11 2 17 5 13 3 -3 4 -12 1 -19z"/>
<path d="M1025 1860 c-3 -5 -2 -10 4 -10 5 0 13 5 16 10 3 6 2 10 -4 10 -5 0
-13 -4 -16 -10z"/>
<path d="M1175 1710 c-16 -4 -40 -13 -52 -20 -18 -11 -24 -12 -37 -1 -9 8 -16
10 -15 5 0 -12 50 -50 74 -57 28 -9 67 26 63 56 -3 20 -7 22 -33 17z"/>
<path d="M1245 1630 c-11 -5 -35 -9 -53 -9 -18 -1 -41 -5 -51 -10 -10 -6 -33
-6 -56 -1 -36 8 -55 6 -44 -4 9 -9 158 -19 183 -12 14 3 30 15 36 26 6 11 9
20 8 19 -2 0 -12 -4 -23 -9z"/>
<path d="M1153 1563 c-34 -4 -46 -23 -15 -23 28 0 62 12 62 21 0 5 -3 8 -7 7
-5 0 -23 -3 -40 -5z"/>
<path d="M2 2067 c-1 -32 2 -56 7 -53 12 8 21 46 11 46 -5 0 -11 15 -13 33 -2
19 -4 9 -5 -26z"/>
<path d="M845 2090 c-16 -17 -16 -20 -3 -15 9 4 19 13 22 21 7 19 2 18 -19 -6z"/>
<path d="M208 2023 c6 -2 18 -2 25 0 6 3 1 5 -13 5 -14 0 -19 -2 -12 -5z"/>
<path d="M50 2010 c0 -5 5 -10 10 -10 6 0 10 5 10 10 0 6 -4 10 -10 10 -5 0
-10 -4 -10 -10z"/>
<path d="M2553 1975 c0 -22 2 -30 4 -17 2 12 2 30 0 40 -3 9 -5 -1 -4 -23z"/>
<path d="M250 1990 c0 -5 5 -10 10 -10 6 0 10 5 10 10 0 6 -4 10 -10 10 -5 0
-10 -4 -10 -10z"/>
<path d="M2520 1990 c0 -5 5 -10 10 -10 6 0 10 5 10 10 0 6 -4 10 -10 10 -5 0
-10 -4 -10 -10z"/>
<path d="M515 1970 c-3 -5 -1 -10 4 -10 6 0 11 5 11 10 0 6 -2 10 -4 10 -3 0
-8 -4 -11 -10z"/>
<path d="M598 1915 c2 -14 6 -25 8 -25 2 0 4 11 4 25 0 14 -4 25 -9 25 -4 0
-6 -11 -3 -25z"/>
<path d="M2551 1884 c0 -11 3 -14 6 -6 3 7 2 16 -1 19 -3 4 -6 -2 -5 -13z"/>
<path d="M2551 1834 c0 -11 3 -14 6 -6 3 7 2 16 -1 19 -3 4 -6 -2 -5 -13z"/>
<path d="M2150 1131 c0 -11 31 -24 39 -16 3 3 -1 10 -9 15 -19 12 -30 12 -30
1z"/>
</g>
</svg>
